<?xml version="1.0" encoding="utf-8"?>
<!-- Generator: Adobe Illustrator 26.0.3, SVG Export Plug-In . SVG Version: 6.00 Build 0)  -->
<svg version="1.1" id="Layer_1" xmlns="http://www.w3.org/2000/svg" xmlns:xlink="http://www.w3.org/1999/xlink" x="0px" y="0px"
	 viewBox="0 0 74 74" style="enable-background:new 0 0 74 74;" xml:space="preserve">
<style type="text/css">
	.st0{fill:#1A1A1A;}
	.st1{fill-rule:evenodd;clip-rule:evenodd;fill:#1A1A1A;}
</style>
<g id="layer1" transform="translate(-447.04266,-105.59053)">
	<path id="path22-2" class="st0" d="M1206.87,217.25c-12.78,0-19.57,8.6-19.57,17.96c0,4.34,2.28,9.76,5.98,11.48
		c0.56,0.26,0.86,0.14,0.99-0.41c0.1-0.41,0.59-2.44,0.81-3.38c0.07-0.3,0.06-0.56-0.18-0.86c-1.22-1.48-2.2-4.21-2.2-6.75
		c0-6.53,4.93-12.87,13.36-12.87c7.28,0,12.37,4.97,12.37,12.06c0,8.02-4.04,13.59-9.31,13.59c-2.91,0-5.06-2.4-4.36-5.36
		c0.84-3.52,2.43-7.36,2.43-9.9c0-2.28-1.21-4.14-3.73-4.14c-2.97,0-5.35,3.08-5.35,7.2c0,2.62,0.9,4.37,0.9,4.37
		s-2.97,12.45-3.51,14.76c-0.91,3.92,0.13,10.25,0.22,10.8c0.05,0.3,0.4,0.43,0.58,0.18c0.29-0.39,3.81-5.7,4.81-9.54
		c0.36-1.39,1.84-7.07,1.84-7.07c0.97,1.84,3.79,3.42,6.79,3.42c8.93,0,15.38-8.24,15.38-18.45
		C1225.13,224.56,1217.15,217.25,1206.87,217.25z M1365.02,217.34c-7.61,0-12.59,5.13-12.59,12.33c0,2.1,0.78,4.51,1.75,6.03
		c-0.4-0.03-0.83-0.04-1.26-0.04c-5.79,0-9.4,3.17-9.4,7.74c0,4.29,3.39,5.96,6.57,7.07c2.83,0.99,5.4,1.44,5.4,3.65
		c0,1.49-1.43,2.39-4.23,2.39c-3.33,0-5.16-1.57-5.62-2.16c0.31-0.25,0.81-0.86,0.81-1.85c0-1.37-1-2.48-2.79-2.48
		c-1.52,0-2.78,1.21-3.1,2.84c-2.43,1.99-5.09,3.29-8.86,3.29c-3.72,0-5.67-1.92-5.67-6.03c0.87,0.26,3.18,0.59,4.68,0.59
		c6.29,0,10.57-2.87,10.57-8.6c0-3.08-2.71-6.3-8.05-6.3h-0.04c-7.03,0-10.92,4.46-12.64,9.36c-0.48-0.12-1-0.25-1.48-0.36
		c0.39-1.08,0.67-2.35,0.67-3.74c0-2.42-1.48-5.27-5.49-5.27c-2.79,0-5.45,1.85-7.29,4.59c0.45-1.79,0.74-2.98,0.76-3.06
		c0.12-0.47-0.08-0.99-0.81-0.99h-4.09c-0.58,0-1,0.18-1.17,0.86c-0.11,0.44-1.5,5.98-2.88,11.39c-0.86,3.37-5.38,7.56-11.02,7.56
		c-3.71,0-5.62-2.05-5.62-6.17c0.97,0.38,3.14,0.72,4.63,0.72c6.54,0,10.57-2.87,10.57-8.6c0-3.08-2.71-6.3-8.05-6.3
		c-7.91,0-12.76,6.17-13.58,13.14c-0.34,2.9-2.79,6.89-5.44,6.89c-1.29,0-1.98-0.83-1.98-2.21c0-1.19,0.83-4.09,1.75-7.74
		c0.31-1.22,0.74-3.07,1.26-5.13h4.32c0.64,0,1.02-0.26,1.17-0.86c0.21-0.86,0.57-2.38,0.67-2.79c0.14-0.54-0.17-0.95-0.76-0.95
		h-4.23c0,0,1.93-7.81,1.98-8.01c0.19-0.79-0.48-1.23-1.17-1.08c0,0-3.26,0.64-3.87,0.77c-0.61,0.12-1.08,0.47-1.3,1.35
		c-0.03,0.11-1.71,6.98-1.71,6.98h-3.42c-0.64,0-1.03,0.26-1.17,0.86c-0.21,0.86-0.57,2.38-0.67,2.79
		c-0.14,0.54,0.17,0.95,0.76,0.95h3.33c-0.02,0.1-1.2,4.58-2.16,8.6c-0.45,1.94-1.94,6.44-4.41,6.44c-1.47,0-2.07-0.75-2.07-2.34
		c0-2.51,2.43-8.77,2.43-11.61c0-3.81-2.03-6.03-6.21-6.03c-2.64,0-5.36,1.7-6.52,3.2c0,0,0.37-1.19,0.49-1.67
		c0.13-0.5-0.16-0.99-0.81-0.99h-4.09c-0.87,0-1.09,0.48-1.21,0.99c-0.05,0.21-1.56,5.97-2.97,11.52c-0.97,3.8-3.29,6.98-5.8,6.98
		c-1.3,0-1.89-0.78-1.89-2.16c0-1.19,0.79-4.14,1.71-7.79c1.12-4.44,2.1-8.08,2.2-8.51c0.14-0.55-0.11-1.04-0.81-1.04h-4.14
		c-0.74,0-1.02,0.4-1.17,0.95c0,0-1.16,4.34-2.38,9.23c-0.89,3.54-1.84,7.18-1.84,8.87c0,3.03,1.35,5.31,5.08,5.31
		c2.88,0,5.14-1.47,6.88-3.33c-0.25,1.01-0.43,1.65-0.45,1.71c-0.15,0.58,0.04,1.08,0.72,1.08h4.23c0.73,0,1.02-0.31,1.17-0.95
		c0.15-0.61,3.28-12.96,3.28-12.96c0.83-3.32,2.86-5.54,5.76-5.54c1.37,0,2.57,0.94,2.43,2.7c-0.15,1.94-2.47,8.91-2.47,11.97
		c0,2.32,0.86,5.31,5.22,5.31c2.97,0,5.16-1.45,6.75-3.29c0.58,1.95,2.12,3.29,4.95,3.29c4.7,0,7.51-2.83,9.18-5.63
		c1.39,3.26,4.65,5.63,9.4,5.63c4.84,0,8.55-2.04,11.2-4.82c-0.48,1.87-0.78,3.14-0.81,3.24c-0.15,0.58,0.12,1.04,0.81,1.04h4.14
		c0.57,0,0.98-0.3,1.12-0.9c0.07-0.29,0.68-2.59,1.53-5.9c1.62-6.32,4.22-12.92,8.14-12.92c1.38,0,1.98,0.8,1.98,2.03
		c0,0.57-0.17,1.03-0.31,1.31c-1.9-0.38-3.42,0.58-3.42,2.61c0,1.33,1.36,2.52,3.24,2.52c1.44,0,2.65-0.35,3.6-0.99
		c0.88,0.18,1.83,0.41,2.79,0.63c-0.15,0.95-0.22,1.86-0.22,2.75c0,5.08,3.81,9.41,10.3,9.41c5.09,0,8.36-1.73,11.42-4.28
		c1.45,2.37,5.09,4.32,9.9,4.32c6.58,0,10.3-3.44,10.3-7.97c0-4.1-3.33-5.59-6.79-6.84c-2.82-1.02-5.17-1.61-5.17-3.6
		c0-1.64,1.26-2.34,3.46-2.34c1.43,0,2.52,0.29,3.1,0.45c0.57,1.43,1.73,3.02,3.73,3.02c1.7,0,2.47-1.37,2.47-2.61
		c0-3.52-5.89-3.87-5.89-11.43c0-4.7,2.68-8.6,8.19-8.6c3.82,0,6.3,2.43,6.3,6.35c0,3.23-1.93,9-1.93,9h-3.33
		c-0.64,0-1.02,0.26-1.17,0.86c-0.21,0.86-0.61,2.38-0.72,2.79c-0.14,0.54,0.21,0.95,0.81,0.95h3.24c0,0-3.37,12.38-3.37,14.63
		c0,3.03,1.71,5.31,5.44,5.31c5.28,0,8.59-3.42,10.03-8.42c0.11-0.39-0.1-0.72-0.49-0.72h-2.02c-0.4,0-0.62,0.24-0.72,0.63
		c-0.46,1.77-1.6,3.65-3.82,3.65c-1.29,0-2.02-0.83-2.02-2.21c0-1.19,0.79-3.97,1.75-7.74c0.46-1.79,1.3-5.13,1.3-5.13h4.68
		c0.64,0,1.03-0.26,1.17-0.86c0.21-0.86,0.57-2.38,0.67-2.79c0.14-0.54-0.17-0.95-0.76-0.95h-4.63c0.33-1.32,1.66-5.66,1.66-8.46
		C1376.53,222.09,1371.76,217.34,1365.02,217.34L1365.02,217.34z M1232.6,225.89c-2.09,0-3.9,1.79-4.05,3.96
		c-0.15,2.18,1.46,3.92,3.55,3.92c2.1,0,3.9-1.74,4.05-3.92C1236.3,227.68,1234.7,225.89,1232.6,225.89L1232.6,225.89z
		 M1288.19,240.52c2.04,0,2.74,1.22,2.74,2.7c0,2.51-1.91,4.05-4.95,4.05c-1.09,0-2.61-0.24-3.51-0.54
		C1282.86,244.42,1284.32,240.52,1288.19,240.52z M1332.09,240.52c1.87,0,2.79,1.22,2.79,2.7c0,2.51-1.96,4.05-4.99,4.05
		c-1.09,0-2.61-0.24-3.51-0.54C1326.75,244.42,1328.41,240.52,1332.09,240.52z"/>
	<path id="path3884" class="st0" d="M921.5,244.6c-15.75,0-28.52,12.78-28.52,28.54c0,21.23,22.81,44.56,28.52,44.56
		c5.71,0,28.52-23.33,28.52-44.56C950.03,257.38,937.26,244.6,921.5,244.6L921.5,244.6z M921.5,255.92
		c9.56,0,17.31,7.75,17.31,17.32s-7.75,17.32-17.31,17.32s-17.31-7.75-17.31-17.32c0-3.79,1.23-7.29,3.29-10.14
		c0.22,3.66,3.25,6.57,6.96,6.57c3.86,0,7-3.14,7-7c0-2.76-1.6-5.13-3.92-6.27C918.8,256.09,920.13,255.92,921.5,255.92
		L921.5,255.92z"/>
	<path id="path14" class="st0" d="M1335.97,286.78c-1.95,0-3.54,1.54-3.54,3.45v41.31c0,1.91,1.59,3.45,3.54,3.45h40.79
		c1.95,0,3.54-1.54,3.54-3.45v-41.31c0-1.91-1.59-3.45-3.54-3.45H1335.97z M1343.37,294.87c2.47,0,3.99,1.62,4.04,3.76
		c0,2.09-1.57,3.76-4.09,3.76h-0.04c-2.43,0-4-1.67-4-3.76C1339.28,296.49,1340.9,294.87,1343.37,294.87z M1224.94,294.9
		c-2.47,0-4.09,1.62-4.09,3.76c0,2.09,1.57,3.76,4,3.76h0.05c2.52,0,4.09-1.67,4.09-3.76
		C1228.94,296.52,1227.41,294.9,1224.94,294.9L1224.94,294.9z M1198.41,295.55v31.6h19.98v-6.56h-12.75v-25.04H1198.41z
		 M1256.91,295.55v31.6h7.23v-7.06l1.81-2.28l5.66,9.34h8.9l-9.52-13.51l8.33-9.19h-8.7c0,0-5.95,8.22-6.48,9.19v-18.09
		L1256.91,295.55L1256.91,295.55z M1317.92,295.55v10.94h-0.09c-1.05-1.53-3.23-2.55-6.13-2.55c-5.57,0-10.47,4.45-10.42,12.06
		c0,7.06,4.42,11.66,9.94,11.66c3,0,5.85-1.3,7.28-3.81h0.15l0.28,3.3h6.42c-0.1-1.53-0.2-4.18-0.2-6.78v-24.83L1317.92,295.55
		L1317.92,295.55z M1289.71,303.89c-8.04,0-11.75,6.36-11.75,12.13c0,7.14,4.52,11.61,12.42,11.61c3.14,0,6.04-0.47,8.42-1.45
		l-0.95-4.78c-1.95,0.65-3.95,0.98-6.42,0.98c-3.38,0-6.33-1.39-6.57-4.35l14.99,0.04c0.1-0.56,0.23-1.63,0.23-2.84
		C1300.07,309.6,1297.22,303.89,1289.71,303.89L1289.71,303.89z M1364.7,304.85c4.76,0,8.31,3.11,8.31,9.8v12.48h-7.23v-11.65
		c0-2.93-1.04-4.92-3.66-4.92c-2,0-3.19,1.36-3.71,2.66c-0.19,0.47-0.23,1.11-0.23,1.76v12.16h-7.24c0,0,0.09-19.72,0-21.77h7.24
		v3.07C1359.14,306.95,1360.86,304.85,1364.7,304.85L1364.7,304.85z M1358.18,308.44c-0.02,0.03-0.04,0.06-0.05,0.08h0.05V308.44z
		 M1245.62,304.88c-3.83,0-5.56,2.1-6.52,3.58v0.08h-0.05c0.02-0.03,0.04-0.06,0.05-0.08v-3.07h-7.23c0.09,2.04,0,21.77,0,21.77
		h7.23V315c0-0.65,0.05-1.31,0.24-1.77c0.52-1.3,1.7-2.64,3.7-2.64c2.62,0,3.67,2,3.67,4.92v11.65h7.23v-12.48
		C1253.94,307.99,1250.37,304.88,1245.62,304.88z M1339.71,305.36h7.23v21.77h-7.23V305.36z M1221.28,305.39v21.77h7.23v-21.77
		H1221.28z M1289.33,308.58c3.28,0,4.04,2.93,4.04,4.6h-8.56C1285,311.33,1286.24,308.58,1289.33,308.58L1289.33,308.58z
		 M1313.6,309.38c2.24,0,3.8,1.53,4.22,3.44c0.09,0.42,0.09,0.88,0.09,1.3v2.97c0,0.56-0.04,1.12-0.13,1.58
		c-0.43,2-2.15,3.38-4.24,3.38c-3,0-4.95-2.41-4.95-6.21C1308.6,312.26,1310.27,309.38,1313.6,309.38L1313.6,309.38z"/>
	<path id="path4026" class="st0" d="M1043.66,284.27c-1.71,0.4-3.36,0.57-4.85,0.57c-8.38,0-14.84-5.86-14.84-16.04
		c0-4.99,1.93-7.59,4.66-7.59c2.59,0,4.33,2.33,4.33,7.06c0,2.69-0.72,5.63-1.25,7.38c0,0,2.58,4.51,9.65,3.13
		c1.5-3.33,2.32-7.65,2.32-11.43c0-10.19-5.19-16.11-14.7-16.11c-9.78,0-15.5,7.52-15.5,17.44c0,9.83,4.59,18.26,12.16,22.11
		c-3.18,6.37-7.23,11.99-11.46,16.21c-7.66-9.27-14.59-21.64-17.44-45.77h-11.31c5.22,40.2,20.79,52.99,24.91,55.45
		c2.33,1.4,4.33,1.33,6.46,0.13c3.34-1.9,13.38-11.94,18.94-23.7c2.34-0.01,5.14-0.27,7.93-0.9L1043.66,284.27L1043.66,284.27z"/>
	<path id="path4115" class="st0" d="M619.51,247.35c-18.4,0-28.16,12.35-28.16,25.82c0,6.25,3.33,14.04,8.65,16.52
		c0.81,0.38,1.24,0.21,1.42-0.57c0.14-0.59,0.86-3.49,1.19-4.84c0.11-0.43,0.05-0.8-0.3-1.23c-1.75-2.13-3.16-6.07-3.16-9.73
		c0-9.41,7.12-18.51,19.24-18.51c10.48,0,17.8,7.14,17.8,17.35c0,11.54-5.81,19.53-13.4,19.53c-4.19,0-7.32-3.46-6.32-7.71
		c1.21-5.07,3.53-10.54,3.53-14.2c0-3.28-1.76-6.01-5.4-6.01c-4.28,0-7.71,4.43-7.71,10.36c0,3.78,1.28,6.33,1.28,6.33
		s-4.22,17.88-4.99,21.21c-1.32,5.65,0.17,14.8,0.3,15.6c0.07,0.43,0.54,0.57,0.81,0.21c0.42-0.55,5.51-8.2,6.95-13.72
		c0.51-1.99,2.65-10.14,2.65-10.14c1.4,2.65,5.45,4.9,9.77,4.9c12.86,0,22.12-11.84,22.12-26.53
		C645.79,257.9,634.3,247.35,619.51,247.35"/>
	<path id="path4157" class="st0" d="M789.89,244.09c-2.98,0-5.41,2.35-5.41,5.27v63.07c0,2.91,2.42,5.27,5.41,5.27h62.29
		c2.98,0,5.41-2.35,5.41-5.27v-63.07c0-2.91-2.42-5.27-5.41-5.27H789.89z M801.19,256.45c3.78,0,6.09,2.48,6.16,5.74
		c0,3.19-2.4,5.74-6.25,5.74h-0.06c-3.71,0-6.1-2.55-6.1-5.74C794.95,258.92,797.42,256.45,801.19,256.45L801.19,256.45z
		 M833.75,271.69c7.26,0,12.7,4.75,12.7,14.96v19.06h-11.04v-17.79c0-4.47-1.59-7.52-5.59-7.52c-3.05,0-4.87,2.07-5.67,4.06
		c-0.29,0.71-0.35,1.69-0.35,2.68v18.57h-11.06c0,0,0.14-30.12,0-33.24h11.06v4.69C825.27,274.9,827.9,271.69,833.75,271.69
		L833.75,271.69z M823.8,277.17c-0.03,0.04-0.06,0.08-0.08,0.12h0.08V277.17z M795.6,272.47h11.04v33.24H795.6V272.47L795.6,272.47z
		"/>
	<path id="path4173" class="st0" d="M715.14,249.76c-18.75,0-33.95,15.21-33.95,33.98c0,13.95,8.41,25.92,20.42,31.15
		c-0.19-2.61-0.22-5.7,0.33-8.08c0.65-2.81,4.21-17.91,4.21-17.91s-1.09-2.17-1.09-5.36c0-5.01,2.92-8.74,6.53-8.74
		c3.07,0,4.54,2.3,4.54,5.07c0,3.08-1.96,7.71-2.98,11.99c-0.85,3.59,1.8,6.51,5.33,6.51c6.4,0,11.32-6.76,11.32-16.5
		c0-8.63-6.19-14.64-15.04-14.64c-10.24,0-16.25,7.68-16.25,15.63c0,3.09,1.19,6.42,2.67,8.22c0.3,0.36,0.35,0.67,0.26,1.04
		c-0.27,1.14-0.88,3.59-1,4.09c-0.16,0.66-0.53,0.79-1.21,0.47c-4.5-2.09-7.3-8.66-7.3-13.94c0-11.37,8.24-21.81,23.77-21.81
		c12.49,0,22.2,8.9,22.2,20.81c0,12.41-7.83,22.4-18.69,22.4c-3.65,0-7.07-1.9-8.25-4.14c0,0-1.8,6.88-2.23,8.57
		c-0.64,2.44-2.12,5.37-3.44,7.67c3.11,0.94,6.41,1.46,9.83,1.46c18.75,0,33.95-15.2,33.95-33.96
		C749.09,264.98,733.88,249.76,715.14,249.76L715.14,249.76z"/>
	<path id="Blue_1_" class="st0" d="M451.64,106.15c-2.23,0-4.03,1.81-4.03,4.04v65.08c0,2.23,1.8,4.04,4.03,4.04h35.01v-28.32h-9.53
		v-11.04h9.53v-8.14c0-9.45,5.77-14.59,14.19-14.59c4.03,0,7.5,0.3,8.51,0.43v9.87h-5.84c-4.58,0-5.47,2.18-5.47,5.38v7.05h10.93
		l-1.43,11.04h-9.5v28.32h18.63c2.23,0,4.03-1.81,4.03-4.04v-65.08c0-2.23-1.81-4.04-4.03-4.04L451.64,106.15L451.64,106.15z"/>
	<path id="path22" class="st0" d="M735.17,126.89c-2.69,1.19-5.58,2-8.61,2.36c3.1-1.86,5.47-4.8,6.59-8.3
		c-2.9,1.72-6.11,2.97-9.52,3.64c-2.73-2.92-6.63-4.74-10.95-4.74c-8.28,0-15,6.72-15,15.01c0,1.18,0.13,2.32,0.39,3.42
		c-12.46-0.63-23.51-6.6-30.91-15.68c-1.29,2.22-2.03,4.79-2.03,7.54c0,5.21,2.65,9.8,6.67,12.49c-2.46-0.08-4.77-0.75-6.79-1.88
		c0,0.06,0,0.13,0,0.19c0,7.27,5.17,13.34,12.03,14.72c-1.26,0.34-2.58,0.52-3.95,0.52c-0.97,0-1.91-0.09-2.82-0.27
		c1.91,5.96,7.45,10.3,14.01,10.42c-5.14,4.03-11.6,6.42-18.63,6.42c-1.21,0-2.4-0.07-3.58-0.21c6.64,4.26,14.52,6.74,22.99,6.74
		c27.58,0,42.67-22.87,42.67-42.7c0-0.65-0.01-1.3-0.04-1.94C730.61,132.54,733.15,129.9,735.17,126.89"/>
	<path id="path5" class="st0" d="M948.67,179.3c-0.21,0-0.4-0.01-0.56-0.01c-0.12,0.01-0.24,0.01-0.37,0.01
		c-4.35,0-7.26-2.06-9.83-3.88c-1.84-1.3-3.58-2.53-5.61-2.87c-1-0.17-1.99-0.25-2.95-0.25c-1.73,0-3.1,0.27-4.1,0.46
		c-0.61,0.12-1.14,0.22-1.55,0.22c-0.43,0-0.95-0.1-1.17-0.84c-0.17-0.59-0.3-1.15-0.41-1.7c-0.3-1.36-0.51-2.2-1.02-2.28
		c-5.46-0.84-8.69-2.08-9.33-3.59c-0.07-0.16-0.1-0.32-0.11-0.47c-0.03-0.45,0.29-0.84,0.73-0.91c4.34-0.71,8.19-3.01,11.46-6.82
		c2.53-2.95,3.77-5.77,3.91-6.08c0.01-0.01,0.01-0.03,0.02-0.04c0.63-1.28,0.76-2.38,0.37-3.28c-0.7-1.66-3.03-2.4-4.57-2.89
		c-0.38-0.12-0.75-0.24-1.03-0.35c-1.37-0.54-3.61-1.68-3.31-3.26c0.22-1.15,1.74-1.95,2.96-1.95c0.34,0,0.64,0.06,0.9,0.18
		c1.39,0.65,2.63,0.98,3.71,0.98c1.33,0,1.98-0.51,2.13-0.65c-0.04-0.71-0.09-1.46-0.13-2.18c0,0,0-0.01,0-0.01
		c-0.31-4.98-0.7-11.19,0.88-14.74c4.75-10.65,14.81-11.48,17.78-11.48c0.08,0,1.29-0.01,1.29-0.01c0.05,0,0.11,0,0.18,0
		c2.98,0,13.06,0.83,17.81,11.48c1.59,3.56,1.19,9.77,0.88,14.76l-0.02,0.24c-0.04,0.68-0.08,1.32-0.12,1.94
		c0.15,0.14,0.74,0.6,1.94,0.65c1.02-0.04,2.2-0.37,3.49-0.97c0.4-0.19,0.84-0.23,1.14-0.23c0.45,0,0.92,0.09,1.3,0.25l0.02,0.01
		c1.1,0.39,1.82,1.17,1.83,1.99c0.01,0.76-0.55,1.9-3.34,3.01c-0.29,0.11-0.65,0.23-1.03,0.35c-1.54,0.49-3.87,1.23-4.57,2.89
		c-0.38,0.9-0.26,2,0.37,3.28c0.01,0.01,0.01,0.03,0.02,0.04c0.19,0.46,4.89,11.17,15.37,12.9c0.44,0.07,0.76,0.47,0.73,0.91
		c-0.01,0.16-0.05,0.32-0.12,0.48c-0.64,1.5-3.86,2.74-9.32,3.58c-0.51,0.08-0.73,0.91-1.02,2.27c-0.12,0.56-0.25,1.11-0.42,1.69
		c-0.16,0.54-0.51,0.81-1.08,0.81h-0.09c-0.37,0-0.89-0.07-1.55-0.2c-1.15-0.22-2.45-0.43-4.1-0.43c-0.96,0-1.95,0.08-2.95,0.25
		c-2.03,0.34-3.77,1.57-5.61,2.87C955.93,177.24,953.02,179.3,948.67,179.3"/>
	<path id="path3805" class="st0" d="M1163.5,107.78c-1.26,0-2.25,1.04-2.25,2.3v66.93c0,1.26,0.99,2.3,2.25,2.3h68.55
		c1.26,0,2.29-1.03,2.29-2.3v-66.93c0-1.26-1.03-2.3-2.29-2.3H1163.5z M1189,128.22c3.97,0,7.58,1.53,10.3,4.01
		c-3.2,3.03-3.1,3.2-4.36,4.46c-1.57-1.3-3.28-2.25-5.94-2.25c-5.02,0-8.95,4.06-8.95,9.09c0,5.03,3.93,9.14,8.95,9.14
		c4.96,0,6.98-2.14,8.28-6.08c-2.4,0-8.28,0-8.28,0v-6.08h14.71c1.02,7.34-2.07,18.36-14.71,18.36c-8.46,0-15.34-6.88-15.34-15.35
		C1173.66,135.06,1180.54,128.22,1189,128.22z M1212.8,135.51h3.78v5.31h5.31v3.78h-5.31v5.45h-3.78v-5.45h-5.44v-3.78h5.44V135.51z
		"/>
	<path id="path4180" class="st0" d="M600.35,106.15c-9.92,0-16.72,6.06-16.72,17.19v9.59h-11.22v13.01h11.22v33.36h13.42v-33.36
		h11.19l1.68-13.01h-12.87v-8.31c0-3.77,1.05-6.33,6.44-6.33h6.88v-11.63C609.18,106.5,605.1,106.15,600.35,106.15L600.35,106.15z"
		/>
	<path id="rect4197" class="st0" d="M1052.22,106.15c-8.74,0-15.77,7.04-15.77,15.78v41.6c0,8.74,7.03,15.78,15.77,15.78h41.57
		c8.74,0,15.77-7.04,15.77-15.78v-41.6c0-8.74-7.03-15.78-15.77-15.78H1052.22z M1073.32,122.74c0.03,0,0.06,0,0.1,0
		c1.73,0,7.6,0.48,10.36,6.68c0.92,2.07,0.7,5.68,0.52,8.58l-0.01,0.15c-0.03,0.39-0.05,0.76-0.07,1.12
		c0.09,0.08,0.43,0.35,1.13,0.38c0.59-0.02,1.27-0.22,2.03-0.57c0.23-0.11,0.5-0.12,0.67-0.12c0.26,0,0.53,0.05,0.75,0.15h0.01
		c0.64,0.23,1.05,0.68,1.06,1.15c0.01,0.44-0.32,1.11-1.94,1.75c-0.17,0.07-0.38,0.13-0.6,0.2c-0.9,0.29-2.24,0.72-2.65,1.68
		c-0.22,0.52-0.15,1.17,0.21,1.92c0,0.01,0.01,0.01,0.01,0.02c0.11,0.26,2.84,6.49,8.94,7.5c0.26,0.04,0.44,0.28,0.43,0.54
		c-0.01,0.09-0.03,0.19-0.07,0.28c-0.37,0.87-2.24,1.58-5.42,2.07c-0.3,0.05-0.42,0.53-0.59,1.32c-0.07,0.33-0.15,0.65-0.25,0.99
		c-0.09,0.32-0.3,0.47-0.63,0.47h-0.04c-0.21,0-0.52-0.05-0.91-0.12c-0.67-0.13-1.43-0.25-2.39-0.25c-0.56,0-1.13,0.05-1.71,0.15
		c-1.18,0.2-2.19,0.91-3.26,1.67c-1.5,1.06-3.19,2.25-5.72,2.25c-0.12,0-0.24-0.01-0.32-0.01c-0.07,0.01-0.14,0.01-0.21,0.01
		c-2.53,0-4.23-1.19-5.72-2.25c-1.07-0.76-2.08-1.47-3.26-1.67c-0.58-0.1-1.16-0.15-1.71-0.15c-1.01,0-1.8,0.16-2.39,0.27
		c-0.36,0.07-0.67,0.12-0.91,0.12c-0.25,0-0.55-0.05-0.67-0.48c-0.1-0.34-0.18-0.67-0.25-0.99c-0.17-0.79-0.3-1.28-0.59-1.32
		c-3.18-0.49-5.05-1.21-5.42-2.08c-0.04-0.09-0.06-0.19-0.07-0.28c-0.01-0.26,0.17-0.5,0.43-0.54c2.52-0.42,4.76-1.74,6.66-3.96
		c1.47-1.72,2.2-3.36,2.27-3.54c0-0.01,0.01-0.01,0.01-0.02c0.37-0.74,0.43-1.39,0.21-1.92c-0.41-0.97-1.76-1.4-2.65-1.68
		c-0.22-0.07-0.44-0.13-0.6-0.2c-0.79-0.31-2.1-0.98-1.93-1.89c0.13-0.67,1.01-1.13,1.72-1.13c0.2,0,0.37,0.03,0.52,0.1
		c0.81,0.38,1.54,0.57,2.16,0.57c0.78,0,1.15-0.3,1.24-0.38c-0.02-0.41-0.05-0.85-0.08-1.27c0,0-0.01,0-0.01,0
		c-0.18-2.9-0.41-6.5,0.52-8.57c2.76-6.19,8.62-6.68,10.35-6.68C1072.62,122.75,1073.32,122.74,1073.32,122.74L1073.32,122.74z"/>
	<text transform="matrix(0.9993 0 0 1 683.2758 377.4997)" style="fill:#010101; font-family:'Arial-BoldMT'; font-size:9.1045px;">THESE ICONS ARE ALL PROPERTY AND REGISTERED TRADEMARKS OF THEIR RESPECTIVE OWNERS.</text>
	<text transform="matrix(0.9993 0 0 1 771.4672 388.8806)" style="fill:#010101; font-family:'Arial-BoldMT'; font-size:9.1045px;">MAKE SURE TO CHECK EACH BRAND&apos;S GUIDELINES FOR USING </text>
	<text transform="matrix(0.9993 0 0 1 738.642 400.2614)" style="fill:#010101; font-family:'Arial-BoldMT'; font-size:9.1045px;">THEIR TRADEMARK BEOFRE IMPLEMENTING THEM INTO YOUR DESIGN WORK</text>
	<path id="path2997" class="st1" d="M1081.94,249.96l-2.88,11.52v51.82H1092v7.21h7.2l7.19-7.21h11.51l23.02-23.03v-40.31
		L1081.94,249.96L1081.94,249.96z M1087.69,255.72h47.48v31.67l-10.07,10.08h-15.83l-8.64,8.64v-8.64h-12.95L1087.69,255.72
		L1087.69,255.72z M1103.52,267.23v17.28h5.76v-17.28H1103.52z M1119.34,267.23v17.28h5.76v-17.28H1119.34z"/>
	<path id="path14-2" class="st0" d="M1369.93,138.2v-10.38h-7.41v10.38h-10.67v7.42h10.67v10.68h7.41v-10.68h10.38v-7.42H1369.93z
		 M1315.97,137.61v11.87c0,0,11.5-0.02,16.19-0.02c-2.54,7.69-6.48,11.88-16.19,11.88c-9.82,0-17.49-7.97-17.49-17.8
		c0-9.83,7.67-17.8,17.49-17.8c5.19,0,8.55,1.83,11.63,4.37c2.46-2.46,2.26-2.82,8.52-8.74c-5.32-4.85-12.39-7.8-20.15-7.8
		c-16.54,0-29.94,13.42-29.94,29.96c0,16.55,13.41,29.96,29.94,29.96c24.72,0,30.76-21.54,28.76-35.9
		C1338.88,137.61,1315.97,137.61,1315.97,137.61"/>
	<path id="rect3687" class="st0" d="M807.75,105.59c-11.88,0-21.53,9.67-21.53,21.55v31.16c0,11.88,9.66,21.55,21.53,21.55h31.33
		c11.88,0,21.53-9.66,21.53-21.55v-31.16c0-11.88-9.66-21.55-21.53-21.55H807.75z M807.75,111.97h31.33
		c8.45,0,15.16,6.71,15.16,15.17v31.16c0,8.46-6.71,15.16-15.16,15.16h-31.33c-8.45,0-15.15-6.71-15.15-15.16v-31.16
		C792.6,118.69,799.3,111.97,807.75,111.97z M843.38,118.36c-2.46,0-4.46,2-4.46,4.46c0,2.47,2,4.46,4.46,4.46s4.46-2,4.46-4.46
		C847.84,120.36,845.84,118.36,843.38,118.36z M823.41,123.6c-10.52,0-19.11,8.6-19.11,19.12c0,10.52,8.59,19.12,19.11,19.12
		c10.52,0,19.11-8.6,19.11-19.12C842.53,132.2,833.93,123.6,823.41,123.6z M823.41,129.99c7.07,0,12.73,5.66,12.73,12.74
		c0,7.07-5.66,12.74-12.73,12.74c-7.07,0-12.73-5.66-12.73-12.74C810.69,135.65,816.35,129.99,823.41,129.99z"/>
	<path id="path5068" class="st0" d="M487.86,255.78c-15.04,0-30.07,1.15-33.38,3.46c-6.61,4.61-6.61,41.96,0,46.57
		c6.61,4.61,60.15,4.61,66.76,0c6.61-4.61,6.61-41.96,0-46.57C517.93,256.94,502.9,255.78,487.86,255.78L487.86,255.78z
		 M480.23,271.34l19.35,11.18l-19.35,11.18V271.34z"/>
</g>
</svg>
