<?xml version="1.0" encoding="utf-8"?>
<!-- Generator: Adobe Illustrator 26.0.3, SVG Export Plug-In . SVG Version: 6.00 Build 0)  -->
<svg version="1.1" id="Layer_1" xmlns="http://www.w3.org/2000/svg" xmlns:xlink="http://www.w3.org/1999/xlink" x="0px" y="0px"
	 viewBox="0 0 74 74" style="enable-background:new 0 0 74 74;" xml:space="preserve">
<style type="text/css">
	.st0{fill:#1A1A1A;}
	.st1{fill-rule:evenodd;clip-rule:evenodd;fill:#1A1A1A;}
</style>
<g id="layer1" transform="translate(-447.04266,-105.59053)">
	<path id="path22-2" class="st0" d="M991.08,211.34c-12.75,0-19.51,8.58-19.51,17.91c0,4.33,2.28,9.73,5.97,11.45
		c0.56,0.26,0.86,0.14,0.99-0.4c0.1-0.41,0.58-2.43,0.81-3.37c0.07-0.3,0.06-0.56-0.18-0.85c-1.21-1.48-2.2-4.19-2.2-6.73
		c0-6.52,4.92-12.84,13.32-12.84c7.26,0,12.33,4.95,12.33,12.03c0,8-4.03,13.56-9.28,13.56c-2.9,0-5.05-2.39-4.35-5.34
		c0.84-3.51,2.42-7.34,2.42-9.87c0-2.27-1.2-4.13-3.72-4.13c-2.96,0-5.34,3.07-5.34,7.18c0,2.62,0.9,4.35,0.9,4.35
		s-2.96,12.42-3.5,14.72c-0.91,3.91,0.13,10.22,0.22,10.77c0.05,0.3,0.4,0.43,0.58,0.18c0.29-0.38,3.8-5.69,4.8-9.52
		c0.35-1.38,1.84-7.05,1.84-7.05c0.97,1.84,3.78,3.41,6.77,3.41c8.91,0,15.34-8.22,15.34-18.4
		C1009.29,218.63,1001.33,211.34,991.08,211.34z M1148.79,211.43c-7.59,0-12.56,5.12-12.56,12.3c0,2.1,0.78,4.5,1.75,6.01
		c-0.4-0.03-0.83-0.04-1.26-0.04c-5.77,0-9.37,3.16-9.37,7.72c0,4.28,3.38,5.94,6.55,7.05c2.82,0.98,5.38,1.43,5.38,3.64
		c0,1.49-1.42,2.38-4.22,2.38c-3.32,0-5.15-1.56-5.61-2.15c0.31-0.25,0.81-0.86,0.81-1.84c0-1.37-0.99-2.47-2.78-2.47
		c-1.51,0-2.77,1.2-3.09,2.83c-2.43,1.99-5.08,3.28-8.84,3.28c-3.71,0-5.65-1.92-5.65-6.01c0.87,0.26,3.17,0.58,4.66,0.58
		c6.27,0,10.54-2.86,10.54-8.57c0-3.07-2.7-6.28-8.03-6.28h-0.04c-7.01,0-10.89,4.45-12.6,9.34c-0.48-0.12-1-0.25-1.48-0.36
		c0.39-1.08,0.67-2.34,0.67-3.73c0-2.42-1.48-5.25-5.47-5.25c-2.78,0-5.44,1.84-7.27,4.58c0.45-1.78,0.74-2.98,0.76-3.05
		c0.11-0.47-0.08-0.99-0.81-0.99h-4.08c-0.58,0-1,0.18-1.17,0.85c-0.11,0.44-1.5,5.97-2.87,11.36c-0.86,3.36-5.37,7.54-10.99,7.54
		c-3.7,0-5.61-2.05-5.61-6.15c0.97,0.38,3.13,0.72,4.62,0.72c6.52,0,10.54-2.86,10.54-8.57c0-3.07-2.7-6.28-8.03-6.28
		c-7.89,0-12.72,6.15-13.55,13.11c-0.34,2.89-2.78,6.87-5.43,6.87c-1.29,0-1.97-0.82-1.97-2.2c0-1.19,0.83-4.08,1.75-7.72
		c0.31-1.21,0.74-3.06,1.26-5.12h4.31c0.63,0,1.02-0.26,1.17-0.85c0.21-0.86,0.57-2.37,0.67-2.78c0.14-0.54-0.17-0.94-0.76-0.94
		h-4.22c0,0,1.93-7.79,1.97-7.99c0.19-0.79-0.48-1.22-1.17-1.08c0,0-3.25,0.63-3.86,0.76c-0.6,0.12-1.08,0.47-1.3,1.35
		c-0.03,0.11-1.7,6.96-1.7,6.96h-3.41c-0.64,0-1.02,0.26-1.17,0.85c-0.21,0.86-0.57,2.37-0.67,2.78c-0.14,0.54,0.17,0.94,0.76,0.94
		h3.32c-0.02,0.1-1.2,4.56-2.15,8.57c-0.45,1.93-1.94,6.42-4.4,6.42c-1.47,0-2.06-0.75-2.06-2.33c0-2.5,2.42-8.74,2.42-11.58
		c0-3.8-2.02-6.01-6.19-6.01c-2.63,0-5.35,1.7-6.5,3.19c0,0,0.37-1.19,0.49-1.66c0.12-0.5-0.16-0.99-0.81-0.99h-4.08
		c-0.87,0-1.09,0.48-1.21,0.99c-0.05,0.21-1.55,5.95-2.96,11.49c-0.97,3.79-3.28,6.96-5.79,6.96c-1.29,0-1.88-0.78-1.88-2.15
		c0-1.19,0.79-4.12,1.7-7.77c1.11-4.42,2.09-8.05,2.2-8.48c0.14-0.55-0.11-1.03-0.81-1.03h-4.13c-0.74,0-1.01,0.4-1.17,0.94
		c0,0-1.16,4.33-2.38,9.2c-0.88,3.53-1.84,7.16-1.84,8.84c0,3.02,1.34,5.3,5.07,5.3c2.87,0,5.13-1.46,6.86-3.32
		c-0.25,1.01-0.43,1.64-0.45,1.71c-0.15,0.58,0.04,1.08,0.72,1.08h4.22c0.73,0,1.01-0.3,1.17-0.94c0.15-0.61,3.27-12.93,3.27-12.93
		c0.83-3.31,2.85-5.52,5.74-5.52c1.36,0,2.56,0.94,2.42,2.69c-0.15,1.94-2.47,8.89-2.47,11.94c0,2.31,0.86,5.3,5.2,5.3
		c2.97,0,5.15-1.44,6.73-3.28c0.58,1.95,2.11,3.28,4.93,3.28c4.69,0,7.49-2.82,9.15-5.61c1.38,3.25,4.64,5.61,9.37,5.61
		c4.82,0,8.52-2.04,11.17-4.8c-0.48,1.86-0.78,3.13-0.81,3.23c-0.15,0.58,0.12,1.03,0.81,1.03h4.13c0.57,0,0.98-0.3,1.12-0.9
		c0.07-0.29,0.68-2.58,1.53-5.88c1.62-6.31,4.21-12.88,8.12-12.88c1.38,0,1.97,0.8,1.97,2.02c0,0.57-0.17,1.03-0.31,1.3
		c-1.9-0.38-3.41,0.57-3.41,2.6c0,1.32,1.36,2.51,3.23,2.51c1.43,0,2.64-0.35,3.59-0.99c0.88,0.18,1.83,0.41,2.78,0.63
		c-0.14,0.95-0.22,1.86-0.22,2.74c0,5.07,3.8,9.38,10.27,9.38c5.08,0,8.34-1.73,11.39-4.26c1.45,2.37,5.08,4.31,9.87,4.31
		c6.56,0,10.27-3.43,10.27-7.94c0-4.09-3.32-5.57-6.77-6.82c-2.81-1.01-5.16-1.6-5.16-3.59c0-1.63,1.26-2.33,3.45-2.33
		c1.42,0,2.52,0.29,3.09,0.45c0.57,1.42,1.72,3.01,3.72,3.01c1.69,0,2.47-1.37,2.47-2.6c0-3.51-5.88-3.86-5.88-11.4
		c0-4.68,2.67-8.57,8.16-8.57c3.81,0,6.28,2.43,6.28,6.33c0,3.22-1.93,8.98-1.93,8.98h-3.32c-0.64,0-1.02,0.26-1.17,0.85
		c-0.21,0.86-0.61,2.37-0.72,2.78c-0.14,0.54,0.21,0.94,0.81,0.94h3.23c0,0-3.36,12.34-3.36,14.59c0,3.02,1.71,5.3,5.43,5.3
		c5.27,0,8.57-3.41,10-8.39c0.11-0.39-0.1-0.72-0.49-0.72h-2.02c-0.4,0-0.62,0.24-0.72,0.63c-0.45,1.77-1.6,3.64-3.81,3.64
		c-1.29,0-2.02-0.82-2.02-2.2c0-1.19,0.78-3.96,1.75-7.72c0.46-1.79,1.3-5.12,1.3-5.12h4.66c0.64,0,1.03-0.26,1.17-0.85
		c0.21-0.86,0.56-2.37,0.67-2.78c0.14-0.54-0.17-0.94-0.76-0.94h-4.62c0.33-1.32,1.66-5.64,1.66-8.44
		C1160.27,216.17,1155.52,211.43,1148.79,211.43L1148.79,211.43z M1016.74,219.96c-2.09,0-3.88,1.78-4.04,3.95
		c-0.15,2.17,1.45,3.91,3.54,3.91c2.09,0,3.89-1.73,4.04-3.91C1020.43,221.74,1018.84,219.96,1016.74,219.96L1016.74,219.96z
		 M1072.18,234.55c2.04,0,2.74,1.22,2.74,2.69c0,2.5-1.9,4.04-4.93,4.04c-1.09,0-2.6-0.24-3.5-0.54
		C1066.86,238.44,1068.31,234.55,1072.18,234.55z M1115.96,234.55c1.86,0,2.78,1.22,2.78,2.69c0,2.5-1.95,4.04-4.98,4.04
		c-1.09,0-2.61-0.24-3.5-0.54C1110.63,238.44,1112.29,234.55,1115.96,234.55z"/>
	<path id="path3884" class="st0" d="M706.5,238.62c-15.71,0-28.45,12.74-28.45,28.47c0,21.17,22.75,44.43,28.45,44.43
		c5.7,0,28.45-23.27,28.45-44.43C734.95,251.36,722.21,238.62,706.5,238.62L706.5,238.62z M706.5,249.91
		c9.53,0,17.26,7.73,17.26,17.27c0,9.54-7.73,17.27-17.26,17.27c-9.53,0-17.26-7.73-17.26-17.27c0-3.78,1.22-7.27,3.28-10.12
		c0.22,3.65,3.24,6.55,6.95,6.55c3.85,0,6.98-3.13,6.98-6.98c0-2.75-1.6-5.12-3.91-6.25C703.81,250.08,705.13,249.91,706.5,249.91
		L706.5,249.91z"/>
	<path id="path14" class="st0" d="M1119.83,280.68c-1.95,0-3.53,1.54-3.53,3.44v41.19c0,1.9,1.58,3.44,3.53,3.44h40.68
		c1.95,0,3.53-1.54,3.53-3.44v-41.19c0-1.9-1.58-3.44-3.53-3.44H1119.83z M1127.21,288.75c2.47,0,3.98,1.62,4.03,3.75
		c0,2.08-1.56,3.75-4.08,3.75h-0.04c-2.42,0-3.99-1.66-3.99-3.75C1123.13,290.37,1124.74,288.75,1127.21,288.75z M1009.1,288.78
		c-2.47,0-4.08,1.62-4.08,3.75c0,2.08,1.57,3.75,3.99,3.75h0.05c2.51,0,4.08-1.66,4.08-3.75
		C1013.09,290.4,1011.56,288.78,1009.1,288.78L1009.1,288.78z M982.65,289.44v31.52h19.93v-6.54h-12.72v-24.97H982.65z
		 M1040.98,289.44v31.52h7.21v-7.04l1.81-2.28l5.64,9.31h8.88l-9.49-13.48l8.3-9.17h-8.68c0,0-5.94,8.19-6.46,9.17v-18.04
		L1040.98,289.44L1040.98,289.44z M1101.83,289.44v10.91h-0.09c-1.04-1.53-3.22-2.54-6.11-2.54c-5.55,0-10.44,4.44-10.39,12.03
		c0,7.04,4.41,11.63,9.91,11.63c2.99,0,5.84-1.3,7.26-3.8h0.15l0.28,3.29h6.41c-0.09-1.53-0.2-4.17-0.2-6.76v-24.76L1101.83,289.44
		L1101.83,289.44z M1073.69,297.75c-8.02,0-11.71,6.34-11.71,12.1c0,7.12,4.51,11.58,12.38,11.58c3.13,0,6.03-0.47,8.4-1.45
		l-0.95-4.76c-1.94,0.65-3.94,0.98-6.41,0.98c-3.37,0-6.32-1.39-6.55-4.34l14.95,0.04c0.09-0.56,0.23-1.63,0.23-2.84
		C1084.03,303.44,1081.19,297.75,1073.69,297.75L1073.69,297.75z M1148.47,298.71c4.74,0,8.29,3.1,8.29,9.77v12.45h-7.21v-11.62
		c0-2.92-1.04-4.91-3.65-4.91c-1.99,0-3.18,1.35-3.7,2.65c-0.19,0.46-0.23,1.1-0.23,1.75v12.12h-7.22c0,0,0.09-19.67,0-21.71h7.22
		v3.06C1142.93,300.8,1144.65,298.71,1148.47,298.71L1148.47,298.71z M1141.97,302.28c-0.02,0.03-0.04,0.06-0.05,0.08h0.05V302.28z
		 M1029.72,298.74c-3.82,0-5.54,2.09-6.5,3.57v0.08h-0.05c0.02-0.03,0.04-0.05,0.05-0.08v-3.06h-7.21c0.09,2.04,0,21.71,0,21.71
		h7.21v-12.12c0-0.65,0.05-1.3,0.24-1.77c0.52-1.3,1.7-2.64,3.69-2.64c2.61,0,3.66,1.99,3.66,4.91v11.62h7.21v-12.45
		C1038.02,301.84,1034.46,298.74,1029.72,298.74z M1123.56,299.22h7.21v21.71h-7.21V299.22z M1005.45,299.24v21.71h7.21v-21.71
		H1005.45z M1073.32,302.43c3.27,0,4.03,2.92,4.03,4.59h-8.53C1069,305.17,1070.23,302.43,1073.32,302.43L1073.32,302.43z
		 M1097.52,303.22c2.23,0,3.79,1.53,4.21,3.43c0.09,0.42,0.09,0.88,0.09,1.3v2.96c0,0.56-0.04,1.12-0.13,1.58
		c-0.43,1.99-2.14,3.37-4.23,3.37c-2.99,0-4.93-2.4-4.93-6.2C1092.53,306.09,1094.2,303.22,1097.52,303.22L1097.52,303.22z"/>
	<path id="path4026" class="st0" d="M828.32,278.18c-1.71,0.4-3.35,0.57-4.84,0.57c-8.36,0-14.8-5.84-14.8-16
		c0-4.98,1.92-7.57,4.64-7.57c2.59,0,4.32,2.32,4.32,7.04c0,2.68-0.72,5.62-1.25,7.36c0,0,2.58,4.5,9.62,3.12
		c1.5-3.32,2.31-7.63,2.31-11.4c0-10.16-5.17-16.07-14.66-16.07c-9.75,0-15.46,7.5-15.46,17.4c0,9.8,4.58,18.21,12.13,22.04
		c-3.17,6.35-7.21,11.95-11.42,16.17c-7.64-9.24-14.55-21.58-17.39-45.65h-11.28c5.21,40.09,20.73,52.85,24.84,55.3
		c2.32,1.4,4.32,1.33,6.44,0.13c3.33-1.89,13.34-11.91,18.89-23.64c2.33-0.01,5.13-0.27,7.91-0.9L828.32,278.18L828.32,278.18z"/>
	<path id="path4115" class="st0" d="M405.34,241.37c-18.35,0-28.09,12.32-28.09,25.75c0,6.24,3.32,14,8.63,16.48
		c0.81,0.38,1.24,0.21,1.42-0.57c0.14-0.59,0.86-3.48,1.18-4.82c0.11-0.43,0.05-0.8-0.3-1.22c-1.75-2.12-3.16-6.05-3.16-9.7
		c0-9.38,7.1-18.46,19.19-18.46c10.45,0,17.76,7.12,17.76,17.3c0,11.51-5.8,19.48-13.36,19.48c-4.17,0-7.3-3.45-6.3-7.69
		c1.2-5.05,3.52-10.52,3.52-14.16c0-3.27-1.75-6-5.38-6c-4.26,0-7.69,4.42-7.69,10.34c0,3.77,1.27,6.31,1.27,6.31
		s-4.21,17.83-4.98,21.15c-1.31,5.63,0.17,14.76,0.3,15.55c0.07,0.43,0.54,0.57,0.81,0.21c0.41-0.55,5.49-8.17,6.93-13.69
		c0.51-1.99,2.64-10.11,2.64-10.11c1.39,2.65,5.44,4.88,9.74,4.88c12.82,0,22.06-11.8,22.06-26.46
		C431.55,251.88,420.09,241.37,405.34,241.37"/>
	<path id="path4157" class="st0" d="M575.25,238.11c-2.98,0-5.39,2.35-5.39,5.25v62.9c0,2.9,2.42,5.25,5.39,5.25h62.12
		c2.98,0,5.39-2.35,5.39-5.25v-62.9c0-2.9-2.42-5.25-5.39-5.25H575.25z M586.52,250.44c3.77,0,6.07,2.47,6.15,5.72
		c0,3.18-2.39,5.72-6.23,5.72h-0.06c-3.7,0-6.09-2.54-6.09-5.72C580.29,252.91,582.75,250.44,586.52,250.44L586.52,250.44z
		 M618.99,265.64c7.24,0,12.66,4.73,12.66,14.92v19h-11.01v-17.74c0-4.46-1.59-7.5-5.57-7.5c-3.04,0-4.86,2.07-5.66,4.05
		c-0.29,0.71-0.35,1.69-0.35,2.68v18.51h-11.03c0,0,0.14-30.03,0-33.15h11.03v4.68C610.53,268.84,613.15,265.64,618.99,265.64
		L618.99,265.64z M609.06,271.1c-0.03,0.04-0.06,0.08-0.08,0.12h0.08V271.1z M580.95,266.42h11.01v33.15h-11.01V266.42
		L580.95,266.42z"/>
	<path id="path4173" class="st0" d="M500.7,243.77c-18.7,0-33.86,15.17-33.86,33.88c0,13.91,8.39,25.85,20.37,31.06
		c-0.19-2.6-0.22-5.69,0.33-8.05c0.65-2.8,4.2-17.86,4.2-17.86s-1.08-2.16-1.08-5.34c0-5,2.91-8.72,6.51-8.72
		c3.06,0,4.53,2.3,4.53,5.06c0,3.08-1.96,7.69-2.97,11.96c-0.85,3.58,1.79,6.5,5.32,6.5c6.38,0,11.29-6.74,11.29-16.46
		c0-8.6-6.17-14.6-15-14.6c-10.21,0-16.2,7.66-16.2,15.58c0,3.09,1.18,6.4,2.66,8.19c0.3,0.36,0.35,0.67,0.26,1.03
		c-0.27,1.14-0.88,3.58-1,4.08c-0.15,0.66-0.52,0.79-1.21,0.47c-4.49-2.09-7.28-8.64-7.28-13.9c0-11.34,8.21-21.75,23.71-21.75
		c12.46,0,22.13,8.88,22.13,20.75c0,12.38-7.81,22.34-18.64,22.34c-3.64,0-7.05-1.9-8.22-4.13c0,0-1.79,6.87-2.22,8.54
		c-0.64,2.44-2.11,5.35-3.43,7.65c3.1,0.94,6.39,1.45,9.8,1.45c18.7,0,33.86-15.16,33.86-33.86
		C534.56,258.94,519.4,243.77,500.7,243.77L500.7,243.77z"/>
	<path id="Blue_1_" class="st0" d="M237.94,100.55c-2.22,0-4.02,1.8-4.02,4.02v64.9c0,2.22,1.8,4.02,4.02,4.02h34.92v-28.25h-9.5
		v-11.01h9.5v-8.12c0-9.42,5.75-14.55,14.15-14.55c4.02,0,7.48,0.3,8.49,0.43v9.85h-5.83c-4.57,0-5.45,2.17-5.45,5.36v7.03h10.9
		l-1.42,11.01h-9.48v28.25h18.58c2.22,0,4.02-1.8,4.02-4.02v-64.9c0-2.22-1.8-4.02-4.02-4.02L237.94,100.55L237.94,100.55z"/>
	<path id="path22" class="st0" d="M520.68,121.23c-2.68,1.19-5.56,2-8.59,2.36c3.09-1.85,5.46-4.79,6.57-8.28
		c-2.89,1.72-6.09,2.96-9.5,3.63c-2.73-2.91-6.61-4.73-10.92-4.73c-8.26,0-14.96,6.7-14.96,14.97c0,1.17,0.13,2.32,0.39,3.41
		c-12.43-0.62-23.45-6.58-30.83-15.64c-1.29,2.21-2.02,4.78-2.02,7.52c0,5.19,2.64,9.77,6.65,12.46c-2.45-0.08-4.76-0.75-6.77-1.87
		c0,0.06,0,0.13,0,0.19c0,7.25,5.16,13.3,12,14.68c-1.25,0.34-2.57,0.52-3.94,0.52c-0.96,0-1.9-0.09-2.81-0.27
		c1.9,5.95,7.43,10.27,13.97,10.39c-5.12,4.01-11.57,6.41-18.58,6.41c-1.21,0-2.4-0.07-3.57-0.21c6.62,4.25,14.48,6.72,22.93,6.72
		c27.51,0,42.55-22.8,42.55-42.58c0-0.65-0.01-1.29-0.04-1.93C516.13,126.87,518.67,124.24,520.68,121.23"/>
	<path id="path5" class="st0" d="M733.59,173.5c-0.21,0-0.4-0.01-0.55-0.01c-0.12,0.01-0.24,0.01-0.36,0.01
		c-4.34,0-7.24-2.05-9.8-3.87c-1.84-1.3-3.57-2.52-5.6-2.86c-1-0.17-1.99-0.25-2.94-0.25c-1.73,0-3.09,0.27-4.08,0.46
		c-0.61,0.12-1.14,0.22-1.55,0.22c-0.43,0-0.95-0.09-1.16-0.83c-0.17-0.58-0.29-1.15-0.41-1.69c-0.3-1.36-0.51-2.19-1.02-2.27
		c-5.44-0.84-8.66-2.08-9.3-3.58c-0.07-0.16-0.1-0.32-0.11-0.47c-0.02-0.45,0.29-0.84,0.73-0.91c4.32-0.71,8.17-3,11.43-6.8
		c2.52-2.94,3.76-5.75,3.9-6.06c0.01-0.01,0.01-0.03,0.02-0.04c0.63-1.28,0.75-2.38,0.37-3.28c-0.7-1.66-3.02-2.39-4.56-2.88
		c-0.38-0.12-0.74-0.24-1.03-0.35c-1.36-0.54-3.6-1.68-3.3-3.25c0.22-1.15,1.73-1.94,2.95-1.94c0.34,0,0.64,0.06,0.89,0.18
		c1.38,0.65,2.63,0.98,3.7,0.98c1.33,0,1.97-0.51,2.13-0.65c-0.04-0.71-0.09-1.46-0.13-2.17c0,0,0-0.01,0-0.01
		c-0.31-4.97-0.7-11.16,0.88-14.7c4.73-10.62,14.77-11.44,17.73-11.44c0.08,0,1.29-0.01,1.29-0.01c0.05,0,0.11,0,0.18,0
		c2.97,0,13.03,0.83,17.76,11.45c1.58,3.55,1.19,9.74,0.88,14.72l-0.02,0.24c-0.04,0.68-0.08,1.32-0.12,1.94
		c0.15,0.13,0.73,0.6,1.93,0.65c1.02-0.04,2.19-0.37,3.48-0.97c0.4-0.19,0.84-0.23,1.14-0.23c0.45,0,0.91,0.09,1.3,0.25l0.02,0.01
		c1.1,0.39,1.81,1.17,1.83,1.98c0.01,0.76-0.55,1.9-3.33,3c-0.28,0.11-0.65,0.23-1.03,0.35c-1.54,0.49-3.86,1.23-4.56,2.88
		c-0.38,0.9-0.26,2,0.37,3.27c0.01,0.01,0.01,0.03,0.02,0.04c0.19,0.45,4.88,11.14,15.32,12.86c0.44,0.07,0.76,0.47,0.73,0.91
		c-0.01,0.16-0.05,0.32-0.12,0.48c-0.64,1.49-3.85,2.73-9.3,3.57c-0.51,0.08-0.73,0.91-1.02,2.26c-0.12,0.56-0.25,1.11-0.42,1.68
		c-0.16,0.54-0.51,0.81-1.08,0.81h-0.09c-0.37,0-0.89-0.07-1.55-0.2c-1.15-0.22-2.44-0.43-4.08-0.43c-0.96,0-1.95,0.08-2.95,0.25
		c-2.03,0.34-3.76,1.56-5.59,2.86C740.84,171.45,737.93,173.5,733.59,173.5"/>
	<path id="path3805" class="st0" d="M947.83,102.18c-1.26,0-2.24,1.03-2.24,2.29v66.74c0,1.26,0.99,2.29,2.24,2.29h68.36
		c1.26,0,2.29-1.03,2.29-2.29v-66.74c0-1.26-1.03-2.29-2.29-2.29H947.83z M973.26,122.56c3.96,0,7.56,1.52,10.27,3.99
		c-3.2,3.02-3.09,3.19-4.35,4.44c-1.57-1.3-3.27-2.24-5.92-2.24c-5.01,0-8.93,4.05-8.93,9.07c0,5.01,3.92,9.11,8.93,9.11
		c4.95,0,6.96-2.14,8.25-6.06c-2.39,0-8.25,0-8.25,0v-6.06h14.67c1.02,7.32-2.06,18.31-14.67,18.31c-8.43,0-15.3-6.87-15.3-15.31
		C957.97,129.38,964.83,122.56,973.26,122.56z M996.99,129.83h3.77v5.3h5.29v3.77h-5.29v5.43h-3.77v-5.43h-5.43v-3.77h5.43V129.83z"
		/>
	<path id="path4180" class="st0" d="M386.23,100.55c-9.89,0-16.67,6.04-16.67,17.14v9.57h-11.19v12.97h11.19v33.27h13.38v-33.27
		h11.16l1.68-12.97h-12.84v-8.28c0-3.76,1.04-6.31,6.42-6.31h6.86v-11.6C395.04,100.9,390.97,100.55,386.23,100.55L386.23,100.55z"
		/>
	<path id="rect4197" class="st0" d="M836.86,100.55c-8.71,0-15.72,7.02-15.72,15.73v41.48c0,8.72,7.01,15.73,15.72,15.73h41.45
		c8.71,0,15.72-7.02,15.72-15.73v-41.48c0-8.72-7.01-15.73-15.72-15.73H836.86z M857.9,117.1c0.03,0,0.06,0,0.1,0
		c1.73,0,7.58,0.48,10.33,6.66c0.92,2.06,0.7,5.67,0.51,8.56l-0.01,0.15c-0.02,0.39-0.05,0.76-0.07,1.12
		c0.09,0.08,0.43,0.35,1.13,0.38c0.59-0.02,1.27-0.22,2.02-0.57c0.23-0.11,0.5-0.12,0.67-0.12c0.26,0,0.52,0.05,0.75,0.15h0.01
		c0.64,0.23,1.05,0.68,1.06,1.15c0.01,0.44-0.31,1.1-1.93,1.74c-0.17,0.07-0.38,0.13-0.6,0.2c-0.89,0.28-2.24,0.71-2.65,1.68
		c-0.22,0.52-0.15,1.17,0.21,1.91c0,0.01,0.01,0.01,0.01,0.02c0.11,0.26,2.83,6.47,8.91,7.48c0.26,0.04,0.44,0.28,0.42,0.54
		c-0.01,0.09-0.03,0.19-0.07,0.28c-0.37,0.87-2.24,1.58-5.41,2.07c-0.3,0.05-0.42,0.53-0.59,1.32c-0.07,0.33-0.15,0.65-0.25,0.98
		c-0.09,0.31-0.3,0.47-0.63,0.47h-0.04c-0.21,0-0.52-0.05-0.9-0.12c-0.67-0.13-1.42-0.25-2.38-0.25c-0.56,0-1.13,0.05-1.71,0.15
		c-1.18,0.2-2.18,0.91-3.25,1.67c-1.49,1.06-3.18,2.25-5.71,2.25c-0.12,0-0.24-0.01-0.32-0.01c-0.07,0.01-0.14,0.01-0.21,0.01
		c-2.52,0-4.22-1.19-5.71-2.25c-1.07-0.75-2.07-1.47-3.25-1.67c-0.58-0.1-1.15-0.15-1.71-0.15c-1,0-1.8,0.15-2.38,0.27
		c-0.36,0.07-0.67,0.12-0.9,0.12c-0.25,0-0.54-0.05-0.67-0.48c-0.1-0.34-0.18-0.67-0.25-0.98c-0.17-0.79-0.3-1.27-0.59-1.32
		c-3.17-0.49-5.03-1.21-5.41-2.08c-0.04-0.09-0.06-0.19-0.07-0.28c-0.01-0.26,0.17-0.49,0.42-0.54c2.51-0.41,4.75-1.73,6.64-3.94
		c1.47-1.71,2.19-3.35,2.27-3.53c0-0.01,0.01-0.01,0.01-0.02c0.37-0.74,0.43-1.39,0.21-1.91c-0.41-0.96-1.75-1.39-2.65-1.68
		c-0.22-0.07-0.44-0.13-0.6-0.2c-0.79-0.31-2.09-0.98-1.92-1.89c0.13-0.67,1.01-1.13,1.72-1.13c0.2,0,0.37,0.03,0.51,0.1
		c0.8,0.38,1.53,0.57,2.16,0.57c0.77,0,1.15-0.3,1.24-0.38c-0.02-0.41-0.05-0.85-0.08-1.26c0,0-0.01,0-0.01,0
		c-0.18-2.89-0.41-6.49,0.51-8.55c2.75-6.18,8.6-6.66,10.32-6.66C857.2,117.11,857.9,117.1,857.9,117.1L857.9,117.1z"/>
	<text transform="matrix(0.9993 0 0 1 468.9289 371.155)" style="fill:#010101; font-family:'Arial-BoldMT'; font-size:9.0794px;">THESE ICONS ARE ALL PROPERTY AND REGISTERED TRADEMARKS OF THEIR RESPECTIVE OWNERS.</text>
	<text transform="matrix(0.9993 0 0 1 556.8781 382.5046)" style="fill:#010101; font-family:'Arial-BoldMT'; font-size:9.0794px;">MAKE SURE TO CHECK EACH BRAND&apos;S GUIDELINES FOR USING </text>
	<text transform="matrix(0.9993 0 0 1 524.1428 393.8542)" style="fill:#010101; font-family:'Arial-BoldMT'; font-size:9.0794px;">THEIR TRADEMARK BEOFRE IMPLEMENTING THEM INTO YOUR DESIGN WORK</text>
	<path id="path2997" class="st1" d="M866.49,243.97l-2.87,11.49v51.68h12.91v7.19h7.18l7.17-7.19h11.48l22.95-22.97v-40.2
		L866.49,243.97L866.49,243.97z M872.23,249.71h47.35v31.59l-10.04,10.05h-15.78l-8.61,8.62v-8.62h-12.91L872.23,249.71
		L872.23,249.71z M888.01,261.19v17.24h5.74v-17.24H888.01z M903.8,261.19v17.24h5.74v-17.24H903.8z"/>
	<path id="path14-2" class="st0" d="M1153.69,132.52v-10.35h-7.39v10.35h-10.64v7.4h10.64v10.65h7.39v-10.65h10.35v-7.4H1153.69z
		 M1099.89,131.92v11.83c0,0,11.47-0.02,16.14-0.02c-2.53,7.67-6.46,11.85-16.14,11.85c-9.8,0-17.44-7.95-17.44-17.75
		c0-9.8,7.65-17.75,17.44-17.75c5.18,0,8.52,1.82,11.59,4.36c2.46-2.46,2.25-2.81,8.5-8.71c-5.3-4.83-12.35-7.78-20.09-7.78
		c-16.49,0-29.86,13.38-29.86,29.88c0,16.5,13.37,29.88,29.86,29.88c24.65,0,30.67-21.48,28.68-35.8
		C1122.73,131.92,1099.88,131.92,1099.89,131.92"/>
	<path id="rect3687" class="st0" d="M593.06,99.99c-11.84,0-21.47,9.64-21.47,21.49v31.08c0,11.85,9.63,21.49,21.47,21.49h31.24
		c11.84,0,21.47-9.64,21.47-21.49v-31.08c0-11.85-9.63-21.49-21.47-21.49H593.06z M593.06,106.36h31.24
		c8.43,0,15.12,6.69,15.12,15.13v31.08c0,8.43-6.69,15.12-15.12,15.12h-31.24c-8.43,0-15.11-6.69-15.11-15.12v-31.08
		C577.95,113.05,584.63,106.36,593.06,106.36z M628.59,112.73c-2.46,0-4.45,1.99-4.45,4.45c0,2.46,1.99,4.45,4.45,4.45
		s4.45-1.99,4.45-4.45C633.04,114.72,631.05,112.73,628.59,112.73z M608.68,117.96c-10.49,0-19.05,8.57-19.05,19.07
		c0,10.49,8.57,19.07,19.05,19.07c10.49,0,19.06-8.57,19.06-19.07C627.74,126.53,619.17,117.96,608.68,117.96z M608.68,124.32
		c7.05,0,12.7,5.65,12.7,12.7c0,7.05-5.65,12.7-12.7,12.7c-7.05,0-12.69-5.65-12.69-12.7C595.99,129.97,601.63,124.32,608.68,124.32
		z"/>
	<path id="path5068" class="st0" d="M274.05,249.77c-15,0-29.99,1.15-33.29,3.45c-6.59,4.6-6.59,41.84,0,46.44
		c6.59,4.6,59.98,4.6,66.58,0c6.59-4.6,6.59-41.84,0-46.44C304.04,250.92,289.05,249.77,274.05,249.77L274.05,249.77z
		 M266.45,265.29l19.3,11.15l-19.3,11.15V265.29z"/>
</g>
</svg>
